[img]http://i.imgur.com/MANkj.jpg[/img]

[code]

Life.of.Pi.2012.720p.TS.XViD.AC3-26k

 
http://www.imdb.com/title/tt0454876/


Plot:

A young man who survives a disaster at sea is hurtled into an epic journey of adventure and discovery.
 While cast away, he forms an unexpected connection with another survivor ... a fearsome Bengal tiger.



Sources - VIDEO: 1080 file .. ..... thanks .... :P
          AUDIO: A friend  ..... thanks .... :P
          SUBS : Hard Coded English for MOST foreign speaking parts..


 
          

Format                                   : AVI
Format/Info                              : Audio Video Interleave
Format profile                           : OpenDML
File size                                : 3.01 GiB
Duration                                 : 2h 4mn
Overall bit rate                         : 3 464 Kbps
Writing library                          : VirtualDub build 32839/release

Video
ID                                       : 0
Format                                   : MPEG-4 Visual
Format profile                           : Advanced Simple@L5
Format settings, BVOP                    : 2
Format settings, QPel                    : Yes
Format settings, GMC                     : No warppoints
Format settings, Matrix                  : Default (H.263)
Muxing mode                              : Packed bitstream
Codec ID                                 : XVID
Codec ID/Hint                            : XviD
Duration                                 : 2h 4mn
Bit rate                                 : 3 006 Kbps
Width                                    : 1 280 pixels
Height                                   : 688 pixels
Display aspect ratio                     : 1.85:1
Frame rate                               : 25.000 fps
Color space                              : YUV
Chroma subsampling                       : 4:2:0
Bit depth                                : 8 bits
Scan type                                : Progressive
Compression mode                         : Lossy
Bits/(Pixel*Frame)                       : 0.137
Stream size                              : 2.61 GiB (87%)
Writing library                          : XviD 64

Audio
ID                                       : 1
Format                                   : AC-3
Format/Info                              : Audio Coding 3
Mode extension                           : CM (complete main)
Format settings, Endianness              : Big
Codec ID                                 : 2000
Duration                                 : 2h 4mn
Bit rate mode                            : Constant
Bit rate                                 : 448 Kbps
Channel(s)                               : 6 channels
Channel positions                        : Front: L C R, Side: L R, LFE
Sampling rate                            : 44.1 KHz
Bit depth                                : 16 bits
Compression mode                         : Lossy
Stream size                              : 399 MiB (13%)
Alignment                                : Split accross interleaves
Interleave, duration                     : 40 ms (1.00 video frame)
Interleave, preload duration             : 500 ms

Notes -

K we got passes a very nice 1080 HD File.. thanks bro.. so we took it and just cleaned it up as it
was a very nice source to begin with. there are sum occaional borders here and ther but not a bother 
at least not to me for the q of the vid and then we just synced and muxed the LiNE that we got passed
thanks for that bro..  very nice LiNE btw.. :bow:


Side Note...... FULL MOVIE WITH 5.1 ... ENJOY

[/code]

Screens:

[img]http://i.imgur.com/SRjNI.jpg[/img]
[img]http://i.imgur.com/v55sF.png[/img]
[img]http://i.imgur.com/bdGTL.jpg[/img]
[img]http://i.imgur.com/QAtFh.png[/img]
[img]http://i.imgur.com/u9pun.jpg[/img]
[img]http://img442.imageshack.us/img442/7670/vlcsnap2012123117h45m05.png[/img]
[img]http://img545.imageshack.us/img545/5843/vlcsnap2012123117h44m14.png[/img]
[img]http://img856.imageshack.us/img856/8263/vlcsnap2012123117h43m55.png[/img]

Greetz:
XtremeEncode|CM8|RX|VISION|HDSCENE|xTriLL|ADTRG|CRYS|REMIXHD|HS|Tommiecook
BIDA|RX|REFILL|INSPiRAL|AXED|HOPE|Anonymous|GooN|NOIR|Blackjesus|Gabroo Punjab Deh
|UNiQUE|RESiSTANCE|TRiNiTY|LEGION

To all the people who have helped me, you know who you are

Anything to offer email us @: 26k@hushmail.me 